<svg viewBox="0 0 368.5 136.71917030567684" data-name="Livello 1" id="Livello_1" xmlns:xlink="http://www.w3.org/1999/xlink" xmlns="http://www.w3.org/2000/svg" style="max-height: 500px" width="368.5" height="136.71917030567684"><defs><style> .cls-1 { fill: #002c3d; } .cls-2 { fill: #ee8900; } .cls-3 { fill: #de4200; } .cls-4 { fill: #7b7b7b; } .cls-5 { fill: url(#Sfumatura_senza_nome_574); } </style><linearGradient gradientUnits="userSpaceOnUse" y2="106.11" x2="91.41" y1="106.11" x1="77.99" data-name="Sfumatura senza nome 574" id="Sfumatura_senza_nome_574"><stop stop-color="#c73205" offset="0"/><stop stop-color="#8a2700" offset="1"/></linearGradient></defs><g><rect height="64.43" width="17.76" y="25.99" x="175.14" class="cls-1"/><rect height="90.41" width="17.75" y="0" class="cls-1"/><path d="M368.5,42.49V26.21h-10.02V0h-18.13V69.86c0,15.17,11.27,20.56,20.93,20.56h7.21v-16.28h-5.73c-3.2,0-4.28-1.08-4.28-4.28v-27.37h10.02Z" class="cls-1"/><path d="M57.25,20.02c-19.92,0-36.12,16.04-36.12,35.75s16.2,35.75,36.12,35.75,35.75-16.04,35.75-35.75S76.97,20.02,57.25,20.02Zm18,35.75c0,9.93-8.07,18-18,18s-18.37-8.07-18.37-18,8.24-18,18.37-18,18,8.07,18,18Z" class="cls-1"/><path d="M301.83,20.02c-19.92,0-36.12,16.04-36.12,35.75s16.2,35.75,36.12,35.75c13.69,0,26.37-8.06,32.31-20.54l.87-1.83h-21.24l-.36,.3c-3.27,2.78-7.39,4.31-11.58,4.31-7.96,0-14.89-4.95-17.38-12.21h52.67l.15-1.11c.21-1.59,.32-3.17,.32-4.67,0-19.71-16.04-35.75-35.75-35.75Zm-16.09,27.06c3.21-5.71,9.32-9.3,16.09-9.3s12.56,3.67,15.72,9.3h-31.81Z" class="cls-1"/><path d="M184.01,0c-5.9,0-10.71,4.72-10.71,10.52,0,6.11,4.7,10.89,10.71,10.89s10.71-4.79,10.71-10.89S189.92,0,184.01,0Z" class="cls-1"/><path d="M151.4,25.99c-5.87-3.9-12.66-5.96-19.67-5.96-19.92,0-36.12,16.04-36.12,35.75s16.2,35.75,36.12,35.75c6.35,0,12.53-1.69,18-4.92v1.48c0,9.8-7.86,17.79-17.7,17.99h-21.71c2.5,2.27,3.96,5.48,3.95,8.91-.01,3.41-1.47,6.59-3.95,8.84h21.42c.12,0,.23,0,.35,0h.75c19.21-.59,34.66-16.4,34.66-35.75V25.99h-16.09Zm-19.67,47.79c-10.13,0-18.37-8.07-18.37-18s8.24-18,18.37-18,18,8.07,18,18-8.07,18-18,18Z" class="cls-3"/><g><path d="M87.36,98.38c-2.38-1.58-5.29-1.47-7.43,.42-2.25,1.98-2.81,5.76-.28,8.16,2.21,2.1,4.32,4.31,6.48,6.46,.5,.5,1.02,.99,1.57,1.53,8.55-8.55-.34-16.57-.34-16.57Z" class="cls-5"/><g><path d="M87.7,114.95c-.07-.07-.15-.15-.22-.22,.07,.07,.15,.14,.22,.22Z" class="cls-2"/><path d="M87.7,114.95c-.18,.2-.3,.32-.42,.44-2.56,2.56-5.13,5.11-7.68,7.69-.44,.45-.85,.98-1.12,1.55-1.16,2.47-.18,5.58,2.23,7.06,2.3,1.41,4.56,1.2,6.79-.24,0,0,8.59-8.09,.18-16.49Z" class="cls-2"/></g><path d="M105.44,110.03c-2.76-1.8-5.54-3.56-8.31-5.35-3.26-2.1-6.54-4.17-9.77-6.31,0,0,8.89,8.02,.34,16.57,8.41,8.41-.18,16.49-.18,16.49,5.95-3.85,11.92-7.67,17.87-11.51,3.61-2.33,3.65-7.55,.06-9.9Z" class="cls-3"/></g><path d="M231.77,20.02c-6.46,0-12.65,2.06-17.94,5.96h-12.62V90.42h18.13V50.21c0-6.74,5.7-12.44,12.44-12.44s12.81,5.7,12.81,12.44v40.2h17.75V50.58c0-16.85-13.71-30.56-30.56-30.56Z" class="cls-1"/></g><g><path d="M24.94,161.87l.37-2.14c-1.12,.95-2.05,1.6-2.8,1.94-.75,.34-1.5,.51-2.24,.51-1.7,0-2.9-.64-3.62-1.92-.72-1.28-.87-3.08-.47-5.39l.29-1.67c.39-2.25,1.27-4.04,2.64-5.36,1.37-1.32,3.13-1.98,5.28-1.98,.54,0,1.06,.05,1.57,.15,.51,.1,1,.25,1.49,.43l1.31-7.5h3.56l-4.01,22.94h-3.38Zm-5.1-7c-.24,1.39-.19,2.4,.17,3.04,.35,.64,.95,.96,1.8,.96,.47,0,1.01-.14,1.59-.42,.59-.28,1.33-.81,2.23-1.6l1.26-7.19c-.94-.41-1.83-.62-2.68-.62-1.2,0-2.12,.37-2.77,1.12-.65,.74-1.08,1.76-1.31,3.04l-.29,1.67Z" class="cls-4"/><path d="M48.41,160.97c-1.15,.43-2.22,.74-3.2,.93-.98,.19-1.9,.28-2.75,.28-2.33,0-3.99-.66-4.95-1.98-.97-1.32-1.26-3.08-.88-5.27l.33-1.86c.26-1.47,.75-2.74,1.47-3.81,.72-1.07,1.64-1.91,2.73-2.51,1.1-.6,2.32-.9,3.66-.9,1.09,0,2.08,.22,2.97,.67,.88,.44,1.55,1.14,1.99,2.08,.44,.94,.54,2.14,.28,3.61-.08,.43-.19,.89-.33,1.38-.15,.49-.34,1-.58,1.53h-9.11c-.18,1.28-.03,2.24,.46,2.88,.49,.64,1.39,.96,2.71,.96,.7,0,1.45-.08,2.23-.25,.78-.16,1.61-.41,2.47-.74l.5,3.01Zm-4.11-12.12c-.95,0-1.74,.31-2.38,.91-.63,.61-1.09,1.48-1.37,2.62h5.95c.04-.1,.07-.2,.08-.29,.02-.09,.03-.18,.05-.26,.17-.99,.03-1.74-.45-2.23-.47-.5-1.1-.74-1.88-.74Z" class="cls-4"/><path d="M60.45,159.08c.76,0,1.42-.13,1.96-.39,.54-.26,.86-.65,.95-1.16,.08-.45-.02-.81-.29-1.07-.28-.26-.81-.49-1.6-.7l-1.69-.46c-1.3-.35-2.21-.94-2.71-1.77-.51-.83-.66-1.81-.46-2.94,.23-1.34,.9-2.47,1.99-3.38,1.09-.91,2.61-1.36,4.55-1.36,.78,0,1.59,.09,2.43,.28,.83,.19,1.69,.49,2.57,.9l-1.55,3.04c-.79-.41-1.53-.7-2.2-.87-.67-.17-1.28-.25-1.82-.25-1.47,0-2.29,.5-2.46,1.49-.07,.39,0,.7,.22,.93,.22,.23,.66,.43,1.33,.62l1.69,.47c1.44,.39,2.43,.99,2.99,1.8s.72,1.82,.51,3.04c-.25,1.45-.95,2.62-2.09,3.53-1.14,.91-2.77,1.36-4.87,1.36-1.8,0-3.62-.41-5.46-1.24l1.48-2.94c.9,.39,1.73,.67,2.49,.84,.76,.17,1.45,.25,2.07,.25Z" class="cls-4"/><path d="M76.36,161.87h-3.56l2.75-15.71h3.56l-2.75,15.71Zm3.36-18.69h-3.75l.65-3.69h3.75l-.65,3.69Z" class="cls-4"/><path d="M97.13,163.45c-.29,1.67-1.18,2.98-2.65,3.92-1.48,.94-3.38,1.41-5.72,1.41-1.1,0-2.23-.12-3.41-.37-1.18-.25-2.23-.66-3.16-1.24l1.52-2.82c.9,.5,1.82,.85,2.76,1.07s1.86,.33,2.79,.33c1.3,0,2.32-.18,3.07-.53,.74-.35,1.17-.82,1.27-1.39,.16-.89-.29-1.33-1.35-1.33h-3.72c-1.01,0-1.8-.17-2.36-.5s-.94-.76-1.14-1.29c-.2-.53-.24-1.08-.14-1.66,.1-.6,.33-1.16,.68-1.69,.35-.53,.79-1.02,1.33-1.47-.66-.45-1.15-1.06-1.46-1.83-.31-.76-.37-1.68-.18-2.76,.21-1.22,.65-2.23,1.31-3.04,.66-.81,1.47-1.41,2.44-1.81s2-.6,3.1-.6h.53c.41,0,.81,.03,1.2,.08,.38,.05,.74,.13,1.08,.23h5.61l-.53,3.04-3.01-.5c.25,.33,.42,.74,.51,1.22,.09,.49,.07,1.08-.05,1.78-.18,1.05-.61,1.96-1.26,2.71-.66,.76-1.46,1.33-2.41,1.74-.95,.4-1.96,.6-3.04,.6h-.53c-.41,0-.8-.03-1.16-.09-.27,.25-.48,.5-.63,.76-.15,.26-.24,.5-.28,.73-.13,.72,.27,1.08,1.2,1.08h3.78c1.43,0,2.51,.37,3.26,1.1,.75,.73,1.01,1.77,.77,3.11Zm-5.91-9.61c.64,0,1.24-.22,1.8-.65,.56-.43,.91-1.06,1.06-1.89,.15-.83,.01-1.46-.4-1.89-.41-.43-.93-.65-1.58-.65h-.53c-.66,0-1.27,.22-1.83,.65-.56,.43-.91,1.06-1.06,1.89-.14,.83-.01,1.46,.4,1.89,.41,.43,.94,.65,1.61,.65h.53Z" class="cls-4"/><path d="M113.82,149.16c-.52,0-1.13,.12-1.83,.37-.71,.25-1.57,.73-2.61,1.46l-1.9,10.88h-3.56l2.75-15.71h3.38l-.37,2.11c1.12-.85,2.15-1.46,3.08-1.84,.93-.38,1.85-.57,2.74-.57,1.51,0,2.57,.48,3.19,1.44,.62,.96,.77,2.31,.47,4.04l-1.84,10.54h-3.56l1.77-10.1c.3-1.74-.26-2.6-1.68-2.6Z" class="cls-4"/><path d="M128.68,161.87h-3.56l2.75-15.71h3.56l-2.75,15.71Zm3.36-18.69h-3.75l.65-3.69h3.75l-.65,3.69Z" class="cls-4"/><path d="M146.59,149.16c-.52,0-1.13,.12-1.83,.37-.71,.25-1.57,.73-2.61,1.46l-1.9,10.88h-3.56l2.75-15.71h3.38l-.37,2.11c1.12-.85,2.15-1.46,3.08-1.84,.93-.38,1.85-.57,2.74-.57,1.51,0,2.57,.48,3.19,1.44,.62,.96,.77,2.31,.47,4.04l-1.84,10.54h-3.56l1.77-10.1c.3-1.74-.26-2.6-1.68-2.6Z" class="cls-4"/><path d="M170.65,163.45c-.29,1.67-1.18,2.98-2.65,3.92-1.48,.94-3.38,1.41-5.72,1.41-1.1,0-2.23-.12-3.41-.37-1.18-.25-2.23-.66-3.16-1.24l1.52-2.82c.9,.5,1.82,.85,2.76,1.07,.93,.22,1.86,.33,2.79,.33,1.3,0,2.32-.18,3.07-.53,.74-.35,1.17-.82,1.27-1.39,.16-.89-.29-1.33-1.35-1.33h-3.72c-1.01,0-1.8-.17-2.36-.5s-.94-.76-1.14-1.29c-.2-.53-.24-1.08-.14-1.66,.1-.6,.33-1.16,.68-1.69,.35-.53,.79-1.02,1.33-1.47-.66-.45-1.15-1.06-1.46-1.83-.31-.76-.37-1.68-.18-2.76,.21-1.22,.65-2.23,1.31-3.04,.66-.81,1.47-1.41,2.44-1.81s2-.6,3.1-.6h.53c.41,0,.81,.03,1.2,.08,.38,.05,.74,.13,1.08,.23h5.61l-.53,3.04-3.01-.5c.25,.33,.42,.74,.51,1.22,.09,.49,.07,1.08-.05,1.78-.18,1.05-.61,1.96-1.26,2.71-.66,.76-1.46,1.33-2.41,1.74-.95,.4-1.96,.6-3.04,.6h-.53c-.41,0-.8-.03-1.16-.09-.27,.25-.48,.5-.63,.76-.15,.26-.24,.5-.28,.73-.13,.72,.27,1.08,1.2,1.08h3.78c1.43,0,2.51,.37,3.26,1.1,.75,.73,1.01,1.77,.77,3.11Zm-5.91-9.61c.64,0,1.24-.22,1.8-.65,.56-.43,.91-1.06,1.06-1.89,.15-.83,.01-1.46-.4-1.89-.41-.43-.93-.65-1.58-.65h-.53c-.66,0-1.27,.22-1.83,.65-.56,.43-.91,1.06-1.06,1.89-.14,.83-.01,1.46,.4,1.89,.41,.43,.94,.65,1.61,.65h.53Z" class="cls-4"/><path d="M198.82,160.97c-1.15,.43-2.22,.74-3.2,.93-.98,.19-1.9,.28-2.75,.28-2.33,0-3.99-.66-4.95-1.98-.97-1.32-1.26-3.08-.88-5.27l.33-1.86c.26-1.47,.75-2.74,1.47-3.81,.72-1.07,1.64-1.91,2.73-2.51,1.1-.6,2.32-.9,3.66-.9,1.09,0,2.08,.22,2.97,.67,.88,.44,1.55,1.14,1.99,2.08,.44,.94,.54,2.14,.28,3.61-.08,.43-.19,.89-.33,1.38-.15,.49-.34,1-.58,1.53h-9.11c-.18,1.28-.03,2.24,.46,2.88,.49,.64,1.39,.96,2.71,.96,.7,0,1.45-.08,2.23-.25,.78-.16,1.61-.41,2.47-.74l.5,3.01Zm-4.11-12.12c-.95,0-1.74,.31-2.38,.91-.63,.61-1.09,1.48-1.37,2.62h5.95c.04-.1,.07-.2,.08-.29,.02-.09,.03-.18,.05-.26,.17-.99,.03-1.74-.45-2.23-.47-.5-1.1-.74-1.88-.74Z" class="cls-4"/><path d="M217.27,149.25h-4.9l-2.21,12.61h-3.56l2.21-12.61h-2.54l.54-3.1h2.54l.29-1.64c.3-1.71,.98-3.12,2.04-4.23,1.06-1.11,2.55-1.66,4.47-1.66,.7,0,1.41,.07,2.13,.22,.72,.15,1.36,.33,1.92,.56l-1.4,3.07c-.93-.33-1.79-.5-2.58-.5-.83,0-1.49,.18-2,.54-.51,.36-.85,1.03-1.02,2l-.29,1.64h4.9l-.54,3.1Z" class="cls-4"/><path d="M234.94,149.25h-4.9l-2.21,12.61h-3.56l2.21-12.61h-2.54l.54-3.1h2.54l.29-1.64c.3-1.71,.98-3.12,2.04-4.23,1.06-1.11,2.55-1.66,4.47-1.66,.7,0,1.41,.07,2.13,.22,.72,.15,1.36,.33,1.92,.56l-1.4,3.07c-.93-.33-1.79-.5-2.58-.5-.83,0-1.49,.18-2,.54-.51,.36-.85,1.03-1.02,2l-.29,1.64h4.9l-.54,3.1Z" class="cls-4"/><path d="M244.88,161.87h-3.56l2.75-15.71h3.56l-2.75,15.71Zm3.36-18.69h-3.75l.65-3.69h3.75l-.65,3.69Z" class="cls-4"/><path d="M272.88,161.87h-3.56l2.75-15.71h3.56l-2.75,15.71Zm3.36-18.69h-3.75l.65-3.69h3.75l-.65,3.69Z" class="cls-4"/><path d="M257.14,153.1l-.32,1.83c-.23,1.32-.17,2.31,.19,2.98,.36,.66,1.07,.99,2.12,.99,.52,0,1.11-.07,1.79-.2,.67-.13,1.42-.35,2.23-.64l.5,3.01c-1,.37-1.92,.65-2.78,.84-.86,.19-1.69,.28-2.5,.28-2.07,0-3.53-.66-4.4-1.98-.86-1.32-1.1-3.08-.72-5.27l.32-1.83c.39-2.21,1.24-3.97,2.57-5.28,1.32-1.31,3.02-1.97,5.09-1.97,.78,0,1.56,.09,2.34,.28s1.57,.46,2.4,.81l-1.56,3.07c-1.39-.58-2.58-.87-3.57-.87-1.05,0-1.88,.33-2.47,.98-.59,.65-1,1.65-1.24,2.99Z" class="cls-4"/><path d="M291.95,160.97c-1.15,.43-2.22,.74-3.2,.93-.98,.19-1.9,.28-2.75,.28-2.33,0-3.99-.66-4.95-1.98-.97-1.32-1.26-3.08-.88-5.27l.33-1.86c.26-1.47,.75-2.74,1.47-3.81,.72-1.07,1.64-1.91,2.73-2.51,1.1-.6,2.32-.9,3.66-.9,1.09,0,2.08,.22,2.97,.67,.88,.44,1.55,1.14,1.99,2.08,.44,.94,.54,2.14,.28,3.61-.08,.43-.19,.89-.33,1.38-.15,.49-.34,1-.58,1.53h-9.11c-.18,1.28-.03,2.24,.46,2.88,.49,.64,1.39,.96,2.71,.96,.7,0,1.45-.08,2.23-.25,.78-.16,1.61-.41,2.47-.74l.5,3.01Zm-4.11-12.12c-.95,0-1.74,.31-2.38,.91-.63,.61-1.09,1.48-1.37,2.62h5.95c.04-.1,.07-.2,.08-.29,.02-.09,.03-.18,.05-.26,.17-.99,.03-1.74-.45-2.23-.47-.5-1.1-.74-1.88-.74Z" class="cls-4"/><path d="M309.02,149.16c-.52,0-1.13,.12-1.83,.37-.7,.25-1.57,.73-2.61,1.46l-1.9,10.88h-3.56l2.75-15.71h3.38l-.37,2.11c1.12-.85,2.15-1.46,3.08-1.84,.93-.38,1.85-.57,2.73-.57,1.51,0,2.57,.48,3.19,1.44,.62,.96,.77,2.31,.47,4.04l-1.84,10.54h-3.56l1.77-10.1c.3-1.74-.26-2.6-1.68-2.6Z" class="cls-4"/><path d="M324.57,153.1l-.32,1.83c-.23,1.32-.17,2.31,.19,2.98,.36,.66,1.07,.99,2.12,.99,.52,0,1.11-.07,1.79-.2,.67-.13,1.42-.35,2.23-.64l.5,3.01c-.99,.37-1.92,.65-2.78,.84-.86,.19-1.69,.28-2.5,.28-2.07,0-3.53-.66-4.4-1.98-.86-1.32-1.1-3.08-.72-5.27l.32-1.83c.39-2.21,1.24-3.97,2.57-5.28,1.32-1.31,3.02-1.97,5.09-1.97,.78,0,1.56,.09,2.34,.28s1.57,.46,2.4,.81l-1.56,3.07c-1.39-.58-2.57-.87-3.57-.87-1.05,0-1.88,.33-2.47,.98s-1,1.65-1.24,2.99Z" class="cls-4"/><path d="M343.38,163.42c-1.01,1.9-2.12,3.27-3.32,4.11-1.2,.84-2.72,1.26-4.56,1.26l.62-3.56c1.1-.04,2.01-.28,2.71-.73,.71-.44,1.29-1.06,1.73-1.84l.4-.71-2.85-15.78h3.53l1.32,7.84,.47,3.32,1.6-3.32,3.95-7.84h3.53l-9.16,17.26Z" class="cls-4"/></g></svg>